# xmcd
#
# Track frame offsets: 
#        182
#        12997
#        27835
#        43280
#        54150
#        68170
#        80700
#        94570
#        112850
#        125327
#
# Disc length: 1909 seconds
#
# Revision: 4
# Processed by: cddbd v1.5.2PL0 Copyright (c) Steve Scherf et al.
# Submitted via: ExactAudioCopy v1.0b3
#
DISCID=7707730a
DTITLE=Gatlin Brothers, The - Greatest Hits
DYEAR=1900
DGENRE=Country
TTITLE0=All The Gold In California
TTITLE1=I Just Wish You Were Someone I Love
TTITLE2=Bitter They Are, Harder They Fall
TTITLE3=I Don't Wanna Cry
TTITLE4=Houston (Means I'm One Day Closer To You)
TTITLE5=Broken Lady
TTITLE6=Night Time Magic
TTITLE7=I've Done Enough Dyin' Today
TTITLE8=Statues Without Hearts
TTITLE9=Love Is Just A Game
EXTD=
EXTT0=
EXTT1=
EXTT2=
EXTT3=
EXTT4=
EXTT5=
EXTT6=
EXTT7=
EXTT8=
EXTT9=
PLAYORDER=
